<?xml version="1.0" encoding="utf-8"?>
<!-- Generator: Adobe Illustrator 24.1.1, SVG Export Plug-In . SVG Version: 6.00 Build 0)  -->
<svg version="1.1" id="Слой_1" xmlns="http://www.w3.org/2000/svg" xmlns:xlink="http://www.w3.org/1999/xlink" x="0px" y="0px"
	 viewBox="0 0 124 124" style="enable-background:new 0 0 124 124;" xml:space="preserve">
<path d="M105.8,18.2C94.1,6.4,78.6,0,62,0C45.4,0,29.9,6.4,18.2,18.2C6.4,29.9,0,45.4,0,62c0,16.6,6.4,32.1,18.2,43.8
	C29.9,117.6,45.4,124,62,124c16.6,0,32.1-6.4,43.8-18.2C117.6,94.1,124,78.6,124,62C124,45.4,117.6,29.9,105.8,18.2z M62,6.6
	c30.5,0,55.4,24.8,55.4,55.4c0,12.8-4.3,24.5-11.6,33.9c-5.6-11.4-15.3-20.1-27.4-24.4c-0.4-0.1-0.8-0.3-1.3-0.4
	c8.2-5.1,13.8-14.2,13.8-24.5c0-15.9-12.9-28.8-28.8-28.8c-15.9,0-28.8,12.9-28.8,28.8C33.2,56.9,38.7,66,47,71
	c-2,0.7-4,1.4-5.9,2.3c-10,4.8-18,12.7-22.8,22.5C11,86.5,6.6,74.8,6.6,62C6.6,31.5,31.5,6.6,62,6.6z M61.4,68.6
	c-12-0.3-21.6-10.1-21.6-22.1c0-12.2,9.9-22.1,22.1-22.1c12.2,0,22.1,9.9,22.1,22.1c0,12.1-9.7,21.9-21.7,22.1
	C62.1,68.6,61.8,68.6,61.4,68.6z M23.1,101.3c8.5-20.6,31.8-31.2,53-23.6c11.3,4,20.3,12.6,24.8,23.6c-10,9.9-23.7,16-38.9,16
	C46.8,117.4,33.1,111.2,23.1,101.3z"/>
</svg>
