<svg width="22" height="22" viewBox="0 0 22 22" fill="none" xmlns="http://www.w3.org/2000/svg">
<path d="M11.3951 17.2175L11.1651 19.5865C11.0741 20.5385 10.1851 21.1845 9.28711 20.9525C7.93611 20.6025 6.98711 19.3475 6.98711 17.9085V14.8735C6.98711 14.1985 6.98711 13.8605 6.84111 13.6135C6.75916 13.4736 6.64499 13.3553 6.50811 13.2685C6.26811 13.1175 5.94111 13.1175 5.28811 13.1175H4.89211C3.18911 13.1175 2.33811 13.1175 1.81411 12.7275C1.41831 12.4308 1.14165 12.0023 1.03411 11.5195C0.888108 10.8695 1.21511 10.0565 1.87011 8.4325L2.19711 7.6225C2.38511 7.1545 2.46211 6.6475 2.42211 6.1425C2.19011 3.2685 4.46911 0.847504 7.25511 1.0075L17.6791 1.6055C18.8181 1.6705 19.3871 1.7035 19.9011 2.1585C20.4161 2.6135 20.5131 3.0825 20.7061 4.0195C21.1171 6.01287 21.0983 8.07096 20.6511 10.0565C20.3681 11.3045 19.1761 11.9765 17.9451 11.8165C14.6811 11.3965 11.7221 13.8355 11.3951 17.2165V17.2175Z" stroke="#9EA0A1" stroke-width="2" stroke-linecap="round" stroke-linejoin="round"/>
<path d="M16 11.5L16.137 11.043C17.024 8.087 16.977 4.928 16 2" stroke="#9EA0A1" stroke-width="2" stroke-linecap="round" stroke-linejoin="round"/>
</svg>
