<svg width="20" height="20" viewBox="0 0 20 20" fill="none" xmlns="http://www.w3.org/2000/svg">
<path d="M10 0C8.02219 0 6.08879 0.58649 4.4443 1.6853C2.79981 2.78412 1.51809 4.3459 0.761209 6.17317C0.00433284 8.00043 -0.193701 10.0111 0.192152 11.9509C0.578004 13.8907 1.53041 15.6725 2.92894 17.0711C4.32746 18.4696 6.10929 19.422 8.0491 19.8079C9.98891 20.1937 11.9996 19.9957 13.8268 19.2388C15.6541 18.4819 17.2159 17.2002 18.3147 15.5557C19.4135 13.9112 20 11.9778 20 10C20 8.68678 19.7413 7.38642 19.2388 6.17317C18.7363 4.95991 17.9997 3.85752 17.0711 2.92893C16.1425 2.00035 15.0401 1.26375 13.8268 0.761205C12.6136 0.258658 11.3132 0 10 0ZM10 2C10.6026 2.00394 11.2029 2.07436 11.79 2.21C11.6162 2.60239 11.3483 2.94587 11.01 3.21C10.79 3.38 10.55 3.52 10.31 3.67C9.55023 4.04408 8.90963 4.62234 8.46 5.34C7.96744 6.36657 7.75361 7.50466 7.84 8.64C7.84 10 7.84 10.8 6.89 11.51C5.52 12.58 3.43 11.98 2.13 11.44C2.04502 10.9647 2.00152 10.4829 2 10C2 7.87827 2.84286 5.84344 4.34315 4.34315C5.84344 2.84285 7.87827 2 10 2ZM14.89 16.32C14.717 15.9207 14.5061 15.5389 14.26 15.18C14.15 15.02 14.04 14.86 13.94 14.69C13.55 14.01 13.69 13.69 14.32 12.69L14.42 12.52C14.8258 11.7759 15.026 10.9371 15 10.09C14.999 9.7546 15.0291 9.41983 15.09 9.09C15.25 8.36 16.8 8.16 17.76 8.09C18.148 9.59852 18.0837 11.1878 17.5752 12.6601C17.0667 14.1324 16.1363 15.4225 14.9 16.37L14.89 16.32Z" fill="black"/>
</svg>
