<svg width="18" height="20" viewBox="0 0 18 20" fill="none" xmlns="http://www.w3.org/2000/svg">
<path d="M0 11C0 13.3869 0.948211 15.6761 2.63604 17.364C4.32387 19.0518 6.61305 20 9 20C9 17.6131 8.05179 15.3239 6.36396 13.636C4.67613 11.9482 2.38695 11 0 11ZM9 20C11.3869 20 13.6761 19.0518 15.364 17.364C17.0518 15.6761 18 13.3869 18 11C15.6131 11 13.3239 11.9482 11.636 13.636C9.94821 15.3239 9 17.6131 9 20ZM15 1V6C15 7.5913 14.3679 9.11742 13.2426 10.2426C12.1174 11.3679 10.5913 12 9 12C7.4087 12 5.88258 11.3679 4.75736 10.2426C3.63214 9.11742 3 7.5913 3 6V1C3.74 1 4.47 1.12 5.16 1.39C5.71 1.62 6.2 1.96 6.61 2.39L9 0L11.39 2.39C11.8 1.96 12.29 1.62 12.84 1.39C13.5293 1.12604 14.2619 0.993749 15 1Z" fill="black"/>
</svg>
