<svg width="24" height="24" viewBox="0 0 24 24" fill="none" xmlns="http://www.w3.org/2000/svg">
<path d="M8.53609 14.8517C8.50206 14.6332 8.45621 14.4166 8.39876 14.2031C7.98543 12.7211 7.63876 12.0937 7.78676 10.5404C7.98009 9.48439 7.96876 7.36505 10.7754 7.69505C11.5168 7.78239 12.6708 8.31305 13.3314 8.30172C13.7094 8.29505 13.9848 7.53039 14.0094 7.27572C14.0434 6.92505 13.4328 6.32905 13.1774 6.23972C12.5844 6.04776 11.9886 5.86463 11.3901 5.69039C10.6974 5.48972 10.7334 4.55372 10.6894 4.22039C10.6797 4.14272 10.6932 4.06391 10.728 3.99383C10.7629 3.92375 10.8176 3.86551 10.8854 3.82639C11.0254 3.74372 11.1354 3.82105 11.2714 3.90972L11.8614 4.34172C12.1928 4.62572 11.2788 5.16839 11.5261 5.25905C11.5261 5.25905 12.6961 5.69839 13.1974 5.78972C13.4721 5.83972 14.4201 4.77039 14.4754 4.14305C14.5188 3.64972 12.2101 1.42105 10.5641 0.555719C9.98543 0.251719 9.64609 0.0750519 9.26476 0.0930519C8.80943 0.114385 8.66609 0.294385 8.09943 0.779719C5.53476 2.97372 3.04543 7.71839 2.68009 8.76839C1.18276 13.0757 0.94876 15.3451 0.895427 16.6271C0.862371 17.0169 0.845468 17.4079 0.84476 17.7991C0.888093 17.7991 0.178093 21.1324 0.84476 21.7991C1.51143 22.4657 4.39543 22.4657 4.39543 22.4657C11.0621 25.1251 23.4421 24.4311 23.4421 17.6437C23.4421 9.52905 10.9001 10.6057 8.53609 14.8517Z" fill="#040606"/>
</svg>
