<svg width="68" height="69" viewBox="0 0 68 69" fill="none" xmlns="http://www.w3.org/2000/svg">
<path d="M34.944 27.172C35.3339 27.7659 36.131 27.9313 36.7249 27.5415C37.3184 27.1521 37.4838 26.3546 37.0944 25.7611C36.2282 24.4411 35.3745 22.9456 34.4695 21.3596C30.6947 14.7463 26.0855 6.67085 19.0546 6.78113C17.257 6.80919 15.5921 7.39927 14.363 8.71487C13.3132 9.83894 12.616 11.4588 12.4803 13.6653C12.2028 18.1741 14.752 23.6107 17.3755 29.2058C19.4822 33.6987 21.6392 38.2989 22.2751 42.3576C22.6479 44.7376 22.6987 47.0644 22.414 49.0454C22.1575 50.8302 21.6433 52.2968 20.8647 53.2025C19.3228 54.9963 17.3412 54.268 15.4205 52.617C12.6619 50.2458 10.0075 46.0856 8.4582 43.6577C8.12742 43.1392 7.83537 42.6814 7.78415 42.6033C7.3945 42.0096 6.59711 41.8442 6.0034 42.2338C5.40964 42.6235 5.24417 43.4209 5.63382 44.0146C5.96495 44.5191 6.1205 44.7629 6.29428 45.0353C7.91479 47.5749 10.6913 51.9263 13.7551 54.5599C16.764 57.1464 19.993 58.1422 22.8076 54.868C23.9223 53.5712 24.6318 51.6566 24.9535 49.4185C25.2746 47.1836 25.2221 44.589 24.8102 41.9601C24.1201 37.5542 21.8813 32.7797 19.695 28.1171C17.215 22.8281 14.8053 17.689 15.0429 13.8273C15.1392 12.2626 15.58 11.171 16.2363 10.4687C16.9502 9.70399 17.966 9.36058 19.0874 9.34316C24.6106 9.25659 28.8079 16.6104 32.2451 22.6322C33.2091 24.3212 34.1179 25.913 34.944 27.172Z" fill="#F5F5F5"/>
<path d="M54.9426 22.8744C57.0988 23.6991 58.6137 25.1533 58.6137 27.2661C58.6137 29.0422 58.5501 30.5081 58.5 31.6562C58.4333 33.1878 58.3954 34.0567 58.5794 34.6113C58.8108 35.3082 59.6223 36.0523 61.4965 37.7712C61.7153 37.9721 61.9478 38.1853 62.1944 38.412C63.9811 40.0573 65.4314 42.2487 66.4339 44.675C67.44 47.1093 67.9999 49.7863 67.9999 52.3862C67.9999 57.2387 66.0893 61.0845 62.9741 63.7752C62.113 64.5186 61.1615 65.1704 60.1352 65.7278C60.781 65.8942 61.2585 66.4807 61.2585 67.1787C61.2585 68.006 60.588 68.6768 59.7603 68.6768H40.2856C39.4584 68.6768 38.7873 68.006 38.7873 67.1787C38.7873 66.4807 39.2648 65.8942 39.9106 65.7278C38.8843 65.1704 37.9328 64.5186 37.0723 63.7752C33.9566 61.0845 32.0461 57.2387 32.0461 52.3862C32.0461 49.8515 32.5779 47.2336 33.536 44.844C34.4879 42.4699 35.8681 40.3127 37.5746 38.6739C38.1966 38.0766 38.6923 37.6125 39.1213 37.2111C39.1441 37.187 39.1673 37.1634 39.1921 37.1406L39.1946 37.143L39.1971 37.1406L39.2001 37.1437C40.5852 35.8484 41.2295 35.2458 41.4271 34.6745C41.6125 34.1389 41.5817 33.2537 41.5241 31.6001C41.4836 30.4424 41.4321 28.9654 41.4321 27.2661C41.4321 25.2605 42.7975 23.8481 44.7798 23.0048V14.0466C44.7798 13.2194 45.4503 12.5483 46.278 12.5483C47.1052 12.5483 54.9426 13.2194 54.9426 14.0466V22.8744Z" fill="#F5F5F5"/>
<path d="M37.6062 26.6538C37.3126 25.7575 36.3477 25.2695 35.4519 25.5636C34.5557 25.8576 34.0676 26.8221 34.3617 27.7184L38.6974 40.8463C38.991 41.7423 39.9559 42.2304 40.8517 41.9365C41.748 41.6425 42.236 40.6778 41.9419 39.7819L37.6062 26.6538Z" fill="#F5F5F5"/>
<path d="M33.5001 25.7799C32.6033 26.0773 32.1176 27.0456 32.4151 27.9424C32.7126 28.8391 33.6809 29.3247 34.5774 29.0273L38.0357 27.8853C38.9324 27.5878 39.418 26.6195 39.1206 25.7228C38.8231 24.826 37.8548 24.3404 36.9581 24.6379L33.5001 25.7799Z" fill="#F5F5F5"/>
<path d="M1.67586 33.8323C1.39929 33.411 0.833392 33.2935 0.411964 33.5701C-0.00941523 33.8463 -0.126803 34.4123 0.149763 34.8337L4.66759 43.1795C5.18716 43.9712 6.25028 44.1919 7.04196 43.6723C7.83365 43.1527 8.05425 42.0896 7.53469 41.2979L1.67586 33.8323Z" fill="#F5F5F5"/>
<path d="M53.7682 8.98849V2.99625H55.5583C56.3858 2.99625 57.0566 2.32549 57.0566 1.49845C57.0566 0.670898 56.3858 0.000134468 55.5583 0.000134468H52.279H52.2704H47.776H47.7673H44.4876C43.6605 0.000134468 42.9898 0.670898 42.9898 1.49845C42.9898 2.32549 43.6605 2.99625 44.4876 2.99625H46.2781V8.98849H42.0658C41.1627 8.98849 40.3427 9.35685 39.7496 9.95049C39.156 10.5436 38.7876 11.3636 38.7876 12.2667C38.7876 13.1694 39.156 13.9893 39.7496 14.5829C40.3427 15.1761 41.1627 15.5444 42.0658 15.5444H57.9805C58.8837 15.5444 59.7036 15.1761 60.2967 14.5829C60.8904 13.9893 61.2587 13.1694 61.2587 12.2667C61.2587 11.3636 60.8904 10.5436 60.2967 9.95049C59.7036 9.35685 58.8837 8.98849 57.9805 8.98849H53.7682Z" fill="#F5F5F5"/>
<path d="M47.5228 30.3278C46.7473 32.0005 46.3026 34.2374 46.3026 36.4652L46.3026 51.0025C45.9727 51.2545 45.6997 51.5412 45.4973 51.8534L45.4973 41.3504C43.9747 48.823 38.6526 49.3194 38.6526 55.599L45.0947 55.5991L45.0947 56.4133L38.6526 56.4133C38.6526 57.7624 40.0947 58.856 41.8736 58.856L45.0947 58.856C45.0947 60.0364 45.5996 60.4844 46.3026 60.4844L48.3157 60.4844C49.0195 60.4844 49.5236 60.0356 49.5236 58.856L50.3289 58.856C50.3289 60.0364 50.8338 60.4844 51.5368 60.4844L53.55 60.4844C54.2537 60.4844 54.7579 60.0356 54.7579 58.856L57.9789 58.856C59.7578 58.856 61.2 57.7624 61.2 56.4133L54.7579 56.4133L54.7579 55.5991L61.2 55.5991C61.2 49.3195 55.8778 48.823 54.3552 41.3504L54.3552 51.8534C54.1528 51.5412 53.8799 51.2546 53.55 51.0026L53.55 36.4652C53.55 34.2374 53.1052 32.0005 52.3298 30.3278C51.6297 28.8176 50.7311 27.916 49.9263 27.916C49.1214 27.916 48.2229 28.8176 47.5228 30.3278ZM51.9394 35.651C51.9394 35.7589 51.897 35.8625 51.8215 35.9388C51.746 36.0152 51.6436 36.0581 51.5368 36.0581L48.3157 36.0581C48.209 36.0581 48.1065 36.0152 48.031 35.9388C47.9555 35.8625 47.9131 35.7589 47.9131 35.651C47.9131 34.0272 51.9394 34.0255 51.9394 35.651Z" fill="#0F1322"/>
</svg>
