<?xml version="1.0" encoding="utf-8"?>
<!-- Generator: Adobe Illustrator 24.1.1, SVG Export Plug-In . SVG Version: 6.00 Build 0)  -->
<svg version="1.1" id="Слой_1" xmlns="http://www.w3.org/2000/svg" xmlns:xlink="http://www.w3.org/1999/xlink" x="0px" y="0px"
	 viewBox="0 0 18 70.9" style="enable-background:new 0 0 18 70.9;" xml:space="preserve">
<style type="text/css">
	.st0{fill:#CECECE;}
	.st1{fill:#9EA0A1;}
</style>
<path d="M16.5,34.5c-0.5-1-1.1-1.9-1.9-2.7l-0.7-0.6c0,0-0.1,0-0.1,0c0,0-0.1,0-0.1,0c0,0-0.1,0-0.1,0s0,0-0.1,0.1l-0.3,0.9
	c-0.2,0.5-0.5,1.1-1,1.7c0,0-0.1,0-0.1,0c0,0-0.1,0-0.1,0c0,0,0-0.1,0-0.1c0.1-1.4-0.3-3-1.3-4.7C10,27.5,9,26.3,7.6,25.6l-1-0.6
	c-0.1-0.1-0.3,0-0.3,0.2l0.1,1.1c0,0.8-0.1,1.4-0.3,2c-0.3,0.7-0.6,1.3-1.1,1.9c-0.3,0.4-0.7,0.8-1.1,1.1c-1,0.8-1.8,1.7-2.4,2.8
	c-0.6,1.1-0.8,2.4-0.8,3.6c0,1.1,0.2,2.2,0.6,3.2c0.4,1,1,1.9,1.8,2.6c0.8,0.8,1.6,1.3,2.6,1.8c1,0.4,2.1,0.6,3.2,0.6
	c1.1,0,2.2-0.2,3.2-0.6c1-0.4,1.9-1,2.6-1.8c0.8-0.8,1.4-1.6,1.8-2.6c0.4-1,0.7-2.1,0.6-3.2C17.3,36.6,17,35.5,16.5,34.5z"/>
<path class="st0" d="M16.5,59.4c-0.5-1-1.1-1.9-1.9-2.7l-0.7-0.6c0,0-0.1,0-0.1,0c0,0-0.1,0-0.1,0c0,0-0.1,0-0.1,0c0,0,0,0-0.1,0.1
	l-0.3,0.9c-0.2,0.5-0.5,1.1-1,1.7c0,0-0.1,0-0.1,0c0,0-0.1,0-0.1,0c0,0,0-0.1,0-0.1c0.1-1.4-0.3-3-1.3-4.7C10,52.4,9,51.3,7.6,50.5
	l-1-0.6c-0.1-0.1-0.3,0-0.3,0.2l0.1,1.1c0,0.8-0.1,1.4-0.3,2c-0.3,0.7-0.6,1.3-1.1,1.9c-0.3,0.4-0.7,0.8-1.1,1.1
	C3,57,2.2,58,1.6,59.1c-0.6,1.1-0.8,2.4-0.8,3.6c0,1.1,0.2,2.2,0.6,3.2c0.4,1,1,1.9,1.8,2.6c0.8,0.8,1.6,1.3,2.6,1.8
	c1,0.4,2.1,0.6,3.2,0.6c1.1,0,2.2-0.2,3.2-0.6c1-0.4,1.9-1,2.6-1.8c0.8-0.8,1.4-1.6,1.8-2.6c0.4-1,0.7-2.1,0.6-3.2
	C17.3,61.6,17,60.5,16.5,59.4z"/>
<path class="st1" d="M16.5,9.5c-0.5-1-1.1-1.9-1.9-2.7l-0.7-0.6c0,0-0.1,0-0.1,0c0,0-0.1,0-0.1,0c0,0-0.1,0-0.1,0c0,0,0,0-0.1,0.1
	l-0.3,0.9c-0.2,0.5-0.5,1.1-1,1.7c0,0-0.1,0-0.1,0c0,0-0.1,0-0.1,0c0,0,0-0.1,0-0.1c0.1-1.4-0.3-3-1.3-4.7C10,2.5,9,1.4,7.6,0.6
	L6.7,0C6.5,0,6.4,0,6.4,0.2l0.1,1.1c0,0.8-0.1,1.4-0.3,2C5.9,4,5.5,4.7,5.1,5.2C4.7,5.6,4.4,6,3.9,6.3C3,7.1,2.2,8.1,1.6,9.2
	c-0.6,1.1-0.8,2.4-0.8,3.6C0.8,13.9,1,15,1.4,16c0.4,1,1,1.9,1.8,2.6c0.8,0.8,1.6,1.3,2.6,1.8C6.8,20.8,7.9,21,9,21
	c1.1,0,2.2-0.2,3.2-0.6c1-0.4,1.9-1,2.6-1.8c0.8-0.8,1.4-1.6,1.8-2.6c0.4-1,0.7-2.1,0.6-3.2C17.3,11.6,17,10.5,16.5,9.5z"/>
</svg>
