<?xml version="1.0" encoding="utf-8"?>
<!-- Generator: Adobe Illustrator 24.1.1, SVG Export Plug-In . SVG Version: 6.00 Build 0)  -->
<svg version="1.1" id="Слой_1" xmlns="http://www.w3.org/2000/svg" xmlns:xlink="http://www.w3.org/1999/xlink" x="0px" y="0px"
	 viewBox="0 0 20 68" style="enable-background:new 0 0 20 68;" xml:space="preserve">
<style type="text/css">
	.st0{fill:#9EA0A1;}
	.st1{fill:#CECECE;}
</style>
<path class="st0" d="M15,17v3h-2v-3c0-1.1-0.9-2-2-2H8c-2.8,0-5-2.3-5-5c0-1.3,0.4-2.3,1.1-3.1C1.8,6.5,0,4.4,0,2
	c0-0.8,0.3-1.4,0.4-2h2.4C2.3,0.5,2,1.3,2,2c0,1.8,1.2,3,3,3h3v2c-1.8,0-3,1.3-3,3s1.3,3,3,3h3C13.3,13,15,14.8,15,17z M15.9,6.9
	C18.1,6.5,20,4.4,20,2c0-0.7-0.3-1.4-0.4-2h-2.4C17.8,0.5,18,1.3,18,2c0,1.8-1.3,3-3,3h-1.3C13.9,5.3,14,5.6,14,6c0,1.8-1.3,3-3,3v2
	c2.8,0,5,2.3,5,5v4h2v-4c0-2.8-1.5-5-3.8-6.3C15.1,9.1,15.8,8.1,15.9,6.9z"/>
<path d="M15,41v3h-2v-3c0-1.1-0.9-2-2-2H8c-2.8,0-5-2.3-5-5c0-1.3,0.4-2.3,1.1-3.1C1.9,30.5,0,28.4,0,26c0-0.8,0.2-1.4,0.4-2h2.4
	C2.3,24.5,2,25.3,2,26c0,1.8,1.3,3,3,3h3v2c-1.8,0-3,1.3-3,3s1.3,3,3,3h3C13.3,37,15,38.8,15,41z M15.9,30.9
	c2.3-0.4,4.1-2.5,4.1-4.9c0-0.8-0.3-1.4-0.4-2h-2.4c0.5,0.5,0.8,1.3,0.8,2c0,1.8-1.3,3-3,3h-1.3c0.1,0.3,0.3,0.6,0.3,1
	c0,1.7-1.3,3-3,3v2c2.8,0,5,2.3,5,5v4h2v-4c0-2.8-1.5-5-3.8-6.3C15.1,33.1,15.8,32.1,15.9,30.9z"/>
<path class="st1" d="M15,65.1v3h-2v-3c0-1.1-0.9-2-2-2H8c-2.8,0-5-2.2-5-5c0-1.3,0.4-2.2,1.1-3.1C1.9,54.6,0,52.5,0,50.1
	c0-0.8,0.2-1.4,0.4-2h2.4c-0.5,0.5-0.8,1.3-0.8,2c0,1.8,1.3,3,3,3h3v2c-1.8,0-3,1.3-3,3c0,1.8,1.3,3,3,3h3
	C13.3,61.1,15,62.9,15,65.1z M15.9,55c2.3-0.4,4.1-2.5,4.1-4.9c0-0.8-0.3-1.4-0.4-2h-2.4c0.5,0.5,0.8,1.3,0.8,2c0,1.8-1.3,3-3,3
	h-1.3c0.1,0.3,0.3,0.6,0.3,1c0,1.8-1.3,3-3,3v2c2.8,0,5,2.3,5,5v4h2v-4c0-2.8-1.5-5-3.8-6.3C15.1,57.3,15.8,56.3,15.9,55z"/>
</svg>
