<?xml version="1.0" encoding="utf-8"?>
<!-- Generator: Adobe Illustrator 24.1.1, SVG Export Plug-In . SVG Version: 6.00 Build 0)  -->
<svg version="1.1" id="Слой_1" xmlns="http://www.w3.org/2000/svg" xmlns:xlink="http://www.w3.org/1999/xlink" x="0px" y="0px"
	 viewBox="0 0 18 68" style="enable-background:new 0 0 18 68;" xml:space="preserve">
<style type="text/css">
	.st0{fill:#9EA0A1;}
	.st1{fill:#CECECE;}
</style>
<path d="M0,35c0,2.4,0.9,4.7,2.6,6.4C4.3,43.1,6.6,44,9,44c0-2.4-0.9-4.7-2.6-6.4C4.7,35.9,2.4,35,0,35z M9,44
	c2.4,0,4.7-0.9,6.4-2.6c1.7-1.7,2.6-4,2.6-6.4c-2.4,0-4.7,0.9-6.4,2.6C9.9,39.3,9,41.6,9,44z M15,25v5c0,1.6-0.6,3.1-1.8,4.2
	C12.1,35.4,10.6,36,9,36s-3.1-0.6-4.2-1.8C3.6,33.1,3,31.6,3,30v-5c0.7,0,1.5,0.1,2.2,0.4c0.6,0.2,1,0.6,1.5,1L9,24l2.4,2.4
	c0.4-0.4,0.9-0.8,1.4-1C13.5,25.1,14.3,25,15,25z"/>
<path class="st0" d="M0,11c0,2.4,0.9,4.7,2.6,6.4C4.3,19.1,6.6,20,9,20c0-2.4-0.9-4.7-2.6-6.4C4.7,11.9,2.4,11,0,11z M9,20
	c2.4,0,4.7-0.9,6.4-2.6c1.7-1.7,2.6-4,2.6-6.4c-2.4,0-4.7,0.9-6.4,2.6C9.9,15.3,9,17.6,9,20z M15,1v5c0,1.6-0.6,3.1-1.8,4.2
	C12.1,11.4,10.6,12,9,12s-3.1-0.6-4.2-1.8C3.6,9.1,3,7.6,3,6V1c0.7,0,1.5,0.1,2.2,0.4c0.6,0.2,1,0.6,1.5,1L9,0l2.4,2.4
	c0.4-0.4,0.9-0.8,1.4-1C13.5,1.1,14.3,1,15,1z"/>
<path class="st1" d="M0,59c0,2.4,0.9,4.7,2.6,6.4C4.3,67.1,6.6,68,9,68c0-2.4-0.9-4.7-2.6-6.4C4.7,59.9,2.4,59,0,59z M9,68
	c2.4,0,4.7-0.9,6.4-2.6c1.7-1.7,2.6-4,2.6-6.4c-2.4,0-4.7,0.9-6.4,2.6C9.9,63.3,9,65.6,9,68z M15,49v5c0,1.6-0.6,3.1-1.8,4.2
	C12.1,59.4,10.6,60,9,60s-3.1-0.6-4.2-1.8C3.6,57.1,3,55.6,3,54v-5c0.7,0,1.5,0.1,2.2,0.4c0.6,0.2,1,0.6,1.5,1L9,48l2.4,2.4
	c0.4-0.4,0.9-0.8,1.4-1C13.5,49.1,14.3,49,15,49z"/>
</svg>
